<?xml version="1.0" encoding="UTF-8" standalone="no"?>
<!-- Created with Inkscape (http://www.inkscape.org/) -->

<svg
   xmlns:dc="http://purl.org/dc/elements/1.1/"
   xmlns:cc="http://creativecommons.org/ns#"
   xmlns:rdf="http://www.w3.org/1999/02/22-rdf-syntax-ns#"
   xmlns:svg="http://www.w3.org/2000/svg"
   xmlns="http://www.w3.org/2000/svg"
   xmlns:sodipodi="http://sodipodi.sourceforge.net/DTD/sodipodi-0.dtd"
   xmlns:inkscape="http://www.inkscape.org/namespaces/inkscape"
   width="160.13319mm"
   height="69.84333mm"
   viewBox="0 0 160.13319 69.84333"
   version="1.1"
   id="svg8"
   inkscape:version="0.92.2 (5c3e80d, 2017-08-06)"
   sodipodi:docname="PCB.svg">
  <defs
     id="defs2" />
  <sodipodi:namedview
     id="base"
     pagecolor="#ffffff"
     bordercolor="#666666"
     borderopacity="1.0"
     inkscape:pageopacity="0.0"
     inkscape:pageshadow="2"
     inkscape:zoom="0.41528267"
     inkscape:cx="584.30904"
     inkscape:cy="115.1969"
     inkscape:document-units="mm"
     inkscape:current-layer="layer1"
     showgrid="false"
     inkscape:window-width="1920"
     inkscape:window-height="1190"
     inkscape:window-x="1920"
     inkscape:window-y="10"
     inkscape:window-maximized="0"
     fit-margin-top="0"
     fit-margin-left="0"
     fit-margin-right="0"
     fit-margin-bottom="0" />
  <metadata
     id="metadata5">
    <rdf:RDF>
      <cc:Work
         rdf:about="">
        <dc:format>image/svg+xml</dc:format>
        <dc:type
           rdf:resource="http://purl.org/dc/dcmitype/StillImage" />
        <dc:title></dc:title>
      </cc:Work>
    </rdf:RDF>
  </metadata>
  <g
     inkscape:label="Layer 1"
     inkscape:groupmode="layer"
     id="layer1"
     transform="translate(-51.620116,0.26814736)">
    <path
       id="path861"
       style="fill:#ffffff;stroke-width:0.26458335;opacity:1;fill-opacity:0.28235295"
       d="m 185.88549,44.552284 c 1.43341,-4.100781 7.04568,-4.843743 9.56562,-1.266332 1.83076,2.599021 0.7991,6.497108 -2.08125,7.863946 l -0.92443,0.438685 -10e-6,3.6658 10e-6,3.665822 0.99219,0.512262 c 2.06012,1.063622 3.24576,3.513168 2.84594,5.879715 -0.59607,3.528044 -5.03359,5.43292 -8.11054,3.481581 -1.78226,-1.130278 -2.47446,-2.409627 -2.47446,-4.573365 -10e-6,-1.535683 0.10368,-1.911152 0.80365,-2.910421 0.44202,-0.630993 1.33495,-1.444961 1.98437,-1.808726 l 1.18073,-0.661476 v -3.61658 -3.616581 l -0.98672,-0.435042 c -2.37675,-1.047917 -3.67112,-4.113178 -2.79509,-6.619294 z m 3.09864,3.633841 c 0.66283,0.741834 0.9466,0.864072 2.00607,0.864075 1.05948,-6e-6 1.34325,-0.122234 2.00608,-0.864075 1.36749,-1.530488 0.91015,-3.668369 -0.95108,-4.446045 -1.34432,-0.561693 -3.07458,0.08191 -3.58135,1.332176 -0.45639,1.125922 -0.27247,2.22662 0.52028,3.113869 z m -0.23842,17.671367 c 1.56999,2.204848 5.02262,1.082756 5.02262,-1.632332 1e-5,-0.664557 -0.21764,-1.237803 -0.67741,-1.784213 -2.25982,-2.685651 -6.38229,0.555738 -4.34521,3.416545 z m 19.24207,0.195658 c 1.89389,-1.8939 0.64226,-4.65667 -2.10963,-4.65667 -2.00486,0 -3.19423,2.39461 -2.10513,4.23832 0.93853,1.5888 2.85416,1.77894 4.21476,0.41835 z M 207.54319,47.503483 V 47.9677 c 0,8.88753 0.0672,11.04755 0.34392,11.04755 0.84768,0 2.60912,1.50343 3.23652,2.76245 1.11873,2.245 0.74012,4.39586 -1.08283,6.15157 -1.73971,1.67553 -3.80109,2.08707 -5.83269,1.16445 l -1e-4,-2e-5 c -4.41375,-2.00445 -4.28272,-8.08659 0.21575,-10.01478 l 0.71714,-0.30738 0.0142,-11.58597 0.0142,-1.002637 -0.25068,-21.69819 v -4.46366 -4.46367 l -0.79375,0.15875 -0.79375,0.15875 V 7.8117426 -0.25143736 h 3.03181 3.0318 l -0.0552,8.00364996 -0.0552,8.0036404 -0.85989,-0.039 -0.8599,-0.039 v 4.935 4.935 z M 172.7439,69.0937 c -4.41375,-2.00445 -4.28272,-8.08659 0.21575,-10.01478 l 0.71714,-0.30738 0.0142,-11.58597 0.0142,-1.002637 10.84419,-10.84909 10.8442,-10.8491 v -4.46366 -4.46367 l -0.79375,0.15875 -0.79375,0.15875 V 7.8117426 -0.25143736 h 3.03181 3.0318 l -0.0552,8.00364996 -0.0552,8.0036404 -0.85989,-0.039 -0.8599,-0.039 v 4.935 4.935 l -10.98021,10.97781 -10.98021,10.97782 V 47.9677 c 0,8.88753 0.0672,11.04755 0.34392,11.04755 0.84768,0 2.60912,1.50343 3.23652,2.76245 1.11873,2.245 0.74012,4.39586 -1.08283,6.15157 -1.73971,1.67553 -3.80109,2.08707 -5.83269,1.16445 z m 4.023,-3.04055 c 1.89389,-1.8939 0.64226,-4.65667 -2.10963,-4.65667 -2.00486,0 -3.19423,2.39461 -2.10513,4.23832 0.93853,1.5888 2.85416,1.77894 4.21476,0.41835 z M 93.478983,28.772415 c -4.10077,-1.43343 -4.84373,-7.04569 -1.26633,-9.56563 2.59903,-1.83076 6.49712,-0.7991 7.863937,2.08127 l 0.43868,0.92443 h 3.66581 3.66581 l 0.51227,-0.99219 c 1.06363,-2.06013 3.51317,-3.24577 5.87971,-2.84594 3.52805,0.59606 5.43293,5.03358 3.48158,8.11054 -1.13028,1.78226 -2.40962,2.47446 -4.57336,2.47446 -1.53568,0 -1.91116,-0.10368 -2.91042,-0.80365 -0.631,-0.442 -1.44493,-1.33497 -1.80873,-1.98437 l -0.66146,-1.18073 h -3.61658 -3.61658 l -0.43504,0.98671 c -1.047917,2.376762 -4.113177,3.67112 -6.619297,2.7951 z m 3.63385,-3.09865 c 0.74184,-0.66283 0.86407,-0.9466 0.86407,-2.00607 0,-1.05948 -0.12223,-1.34325 -0.86407,-2.00608 -1.53049,-1.36749 -3.66837,-0.91017 -4.44604,0.95107 -0.5617,1.34433 0.0819,3.07459 1.33217,3.58137 1.12592,0.45638 2.22662,0.27246 3.11387,-0.52029 z m 17.671357,0.23843 c 2.20485,-1.56999 1.08276,-5.02263 -1.63232,-5.02263 -0.66457,0 -1.23781,0.21764 -1.78422,0.67741 -2.68566,2.25983 0.55573,6.3823 3.41654,4.34522 z m 40.92012,37.893078 c -2.14371,-0.68452 -3.43196,-1.97243 -3.96087,-3.9598 -0.89596,-3.36656 1.66724,-6.66072 5.1706,-6.64513 2.26655,0.0101 4.59206,1.54331 5.03845,3.32188 0.15217,0.6063 0.26734,0.64106 2.12391,0.64106 h 1.96302 l -0.024,-6.66273 -0.024,-6.66273 9.67397,-9.67661 9.67396,-9.67661 v -4.418 c 0,-4.41264 -7.9e-4,-4.41797 -0.59531,-4.39304 -0.32742,0.0137 -0.74414,0.008 -0.92604,-0.0125 -0.25641,-0.029 -0.33073,-1.82294 -0.33073,-7.9833104 v -7.94589996 l 3.10885,0.0745 3.10886,0.0745 0.0701,7.87134996 c 0.0656,7.3621904 0.0399,7.8733304 -0.39688,7.9018804 -0.25682,0.0168 -0.64555,0.0466 -0.86383,0.0661 -0.33438,0.03 -0.40818,0.80755 -0.46864,4.93738 l -0.0718,4.90175 -9.78396,9.78128 -9.78397,9.7813 v 7.34353 7.34353 h -3.03733 -3.03733 l -0.5088,0.99218 c -1.17834,2.29786 -3.99645,3.68151 -6.11825,3.00397 z m 3.24286,-3.46197 c 1.91127,-2.12013 -0.10841,-5.19709 -2.9205,-4.44933 -1.69972,0.45197 -2.45806,2.8801 -1.34244,4.29839 1.14493,1.45554 3.02678,1.52217 4.26294,0.15094 z M 69.054987,42.374793 c -3.4925,-2.14754 -11.251663,-4.350988 -9.78958,-6.02443 l -3.439593,-2.11981 -0.0751,-2.66241 c -0.0731,-2.58987 -0.0931,-2.66692 -0.73427,-2.82785 -1.19926,-0.30099 -2.72545,-1.94838 -3.15968,-3.4106 -1.4104,-4.74931 3.7688,-8.71642 7.976913,-6.11007 3.04951,1.88876 3.36567,6.35826 0.61357,8.674 -0.45416,0.38215 -1.11422,0.76722 -1.46681,0.85572 -0.60437,0.15168 -0.64107,0.27032 -0.64107,2.07261 v 1.91171 l 8.92274,5.46794 8.92274,5.46793 60.331943,-0.003 17.99862,-0.003 10.2526,-10.22253 10.25261,-10.22253 v -3.80735 -3.80735 l -0.72761,0.0762 -0.7276,0.0762 -0.07,-8.0036504 -0.07,-8.00363996 h 3.04659 3.04658 V 7.7651826 15.781483 l -0.85989,-0.0126 -0.8599,-0.0127 -0.0712,4.23333 -0.0712,4.23334 -11.04008,11.04635 -11.04008,11.04635 -18.91889,-0.018 -61.252213,-0.018 -6.35,-3.90462 z m -10.13076,-16.61504 c 0.24945,-0.22575 0.58295,-0.80257 0.74112,-1.28181 0.55082,-1.66899 -0.88719,-3.56453 -2.701913,-3.56158 -1.07965,0.002 -2.27396,0.94705 -2.60889,2.06496 -0.82763,2.76238 2.41133,4.73171 4.569683,2.77843 z m 15.88545,9.78746 c -0.23913,-0.0896 -0.33073,-0.99618 -0.33073,-3.27326 v -3.1494 l -0.8599,-0.36534 c -2.44175,-1.03743 -3.87961,-4.01339 -3.10558,-6.42764 0.95557,-2.9805 3.78556,-4.53647 6.7065,-3.68733 2.55266,0.74208 4.09762,3.11824 3.77863,5.81158 -0.24252,2.04768 -1.42667,3.46217 -3.82334,4.56705 -0.045,0.0207 -0.10053,0.91372 -0.1234,1.98438 l -0.0416,1.94666 60.311683,0.068 17.97837,0.068 4.9708,-4.96281 4.9708,-4.96281 -0.0716,-3.70416 c -0.057,-2.948 -0.1447,-3.6888 -0.42972,-3.62889 -0.19698,0.0414 -0.58393,0.004 -0.8599,-0.084 -0.47791,-0.15168 -0.50177,-0.53578 -0.50177,-8.0789204 v -7.91966996 h 3.04271 3.04271 V 7.7668826 15.785123 l -0.83492,-0.0146 -0.83493,-0.0146 0.0374,4.23333 0.0374,4.23333 -5.73401,5.74006 -5.73401,5.74006 -19.46376,-0.0159 c -10.70506,-0.009 -61.945893,-0.0716 -62.127793,-0.13971 z m 3.04271,-10.01173 c 0.88244,-1.00927 0.80872,-2.52084 -0.17674,-3.62375 -0.66284,-0.74184 -0.94661,-0.86407 -2.00608,-0.86407 -1.05947,0 -1.34324,0.12223 -2.00608,0.86407 -0.92219,1.03212 -1.00713,2.18671 -0.25196,3.42523 0.92104,1.51058 3.20443,1.61266 4.44086,0.19852 z"
       inkscape:connector-curvature="0"
       sodipodi:nodetypes="cscccccccccccccccccccccccccccscccsscccccccccccccccccccccccccccccccccccccccccccccccsscccccsccsccccccccsccccccscscccccscccsccscccccsccsccccccccccccccccccscccscccccscscccccccccccccccccccccccccccccccccscccssccccccccccsccccccccccccccsssccs" />
  </g>
</svg>
